<?xml version="1.0" standalone="no"?><!DOCTYPE svg PUBLIC "-//W3C//DTD SVG 1.1//EN" "http://www.w3.org/Graphics/SVG/1.1/DTD/svg11.dtd"><svg class="icon" width="200px" height="200.00px" viewBox="0 0 1024 1024" version="1.1" xmlns="http://www.w3.org/2000/svg"><path d="M0 128C0 57.6 57.6 0 128 0h768c70.4 0 128 57.6 128 128v768c0 70.4-57.6 128-128 128H128c-70.4 0-128-57.6-128-128V128z" fill="#6554C0" /><path d="M563.2 800l-6.4 6.4-83.2-128c-32 12.8-76.8 6.4-108.8-25.6-32-25.6-38.4-70.4-25.6-102.4L217.6 467.2l6.4-6.4C275.2 403.2 326.4 384 390.4 384c134.4-160 294.4-185.6 396.8-160h6.4v6.4c25.6 102.4 0 262.4-160 396.8 6.4 64-12.8 121.6-70.4 172.8z m51.2-320c38.4 0 70.4-25.6 70.4-64s-25.6-70.4-64-70.4-70.4 25.6-70.4 64c-6.4 32 25.6 64 64 70.4z m-275.2 249.6c-19.2 19.2-83.2 32-83.2 32s12.8-57.6 32-83.2c19.2-19.2 38.4-19.2 57.6-6.4 12.8 19.2 12.8 44.8-6.4 57.6z m0 0" fill="#FFFFFF" /></svg>