<?xml version="1.0" standalone="no"?><!DOCTYPE svg PUBLIC "-//W3C//DTD SVG 1.1//EN" "http://www.w3.org/Graphics/SVG/1.1/DTD/svg11.dtd"><svg class="icon" width="200px" height="200.00px" viewBox="0 0 1024 1024" version="1.1" xmlns="http://www.w3.org/2000/svg"><path d="M0 0m146.285714 0l731.428572 0q146.285714 0 146.285714 146.285714l0 731.428572q0 146.285714-146.285714 146.285714l-731.428572 0q-146.285714 0-146.285714-146.285714l0-731.428572q0-146.285714 146.285714-146.285714Z" fill="#9147E5" /><path d="M506.660571 731.428571a36.132571 36.132571 0 0 1-26.038857-10.971428 33.133714 33.133714 0 0 1-9.142857-25.746286l11.702857-160.109714H327.68c-13.531429 0-25.6-7.314286-31.451429-19.236572a33.353143 33.353143 0 0 1 3.949715-36.205714l199.460571-247.222857a36.717714 36.717714 0 0 1 54.345143-1.024c6.582857 7.606857 9.508571 17.334857 7.899429 27.428571l-21.942858 139.117715H696.32c13.092571 0 25.014857 7.094857 31.085714 18.358857a33.426286 33.426286 0 0 1-2.340571 35.474286L535.259429 716.8a34.596571 34.596571 0 0 1-28.525715 14.701714z m2.194286-34.157714l2.194286 17.042286v-17.042286h-2.194286z" fill="#FFFFFF" /></svg>