<?xml version="1.0" standalone="no"?><!DOCTYPE svg PUBLIC "-//W3C//DTD SVG 1.1//EN" "http://www.w3.org/Graphics/SVG/1.1/DTD/svg11.dtd"><svg class="icon" width="200px" height="200.00px" viewBox="0 0 1024 1024" version="1.1" xmlns="http://www.w3.org/2000/svg"><path d="M0 0m170.666667 0l682.666666 0q170.666667 0 170.666667 170.666667l0 682.666666q0 170.666667-170.666667 170.666667l-682.666666 0q-170.666667 0-170.666667-170.666667l0-682.666666q0-170.666667 170.666667-170.666667Z" fill="#FF4D4F" opacity=".1" /><path d="M512 192a320 320 0 0 0 0 640 320 320 0 0 0 0-640z m0 568.021333A247.936 247.936 0 0 1 263.978667 512 247.936 247.936 0 0 1 512 263.978667 247.936 247.936 0 0 1 760.021333 512 247.936 247.936 0 0 1 512 760.021333z" fill="#FF4D4F" /></svg>